<?xml version="1.0" encoding="UTF-8" standalone="no"?>
<svg
   xmlns:dc="http://purl.org/dc/elements/1.1/"
   xmlns:cc="http://creativecommons.org/ns#"
   xmlns:rdf="http://www.w3.org/1999/02/22-rdf-syntax-ns#"
   xmlns:svg="http://www.w3.org/2000/svg"
   xmlns="http://www.w3.org/2000/svg"
   xmlns:xlink="http://www.w3.org/1999/xlink"
   xmlns:sodipodi="http://sodipodi.sourceforge.net/DTD/sodipodi-0.dtd"
   xmlns:inkscape="http://www.inkscape.org/namespaces/inkscape"
   width="100px"
   height="100px"
   viewBox="0 0 100 100"
   version="1.1"
   id="svg18"
   sodipodi:docname="icon.svg"
   inkscape:version="0.92.5 (2060ec1f9f, 2020-04-08)">
  <metadata
     id="metadata22">
    <rdf:RDF>
      <cc:Work
         rdf:about="">
        <dc:format>image/svg+xml</dc:format>
        <dc:type
           rdf:resource="http://purl.org/dc/dcmitype/StillImage" />
        <dc:title>eclispe-che</dc:title>
      </cc:Work>
    </rdf:RDF>
  </metadata>
  <sodipodi:namedview
     pagecolor="#ffffff"
     bordercolor="#666666"
     borderopacity="1"
     objecttolerance="10"
     gridtolerance="10"
     guidetolerance="10"
     inkscape:pageopacity="0"
     inkscape:pageshadow="2"
     inkscape:window-width="1035"
     inkscape:window-height="757"
     id="namedview20"
     showgrid="false"
     inkscape:pagecheckerboard="true"
     inkscape:zoom="4.72"
     inkscape:cx="45.148181"
     inkscape:cy="48.99602"
     inkscape:window-x="2250"
     inkscape:window-y="99"
     inkscape:window-maximized="0"
     inkscape:current-layer="layer1" />
  <!-- Generator: Sketch 45.2 (43514) - http://www.bohemiancoding.com/sketch -->
  <title
     id="title2">eclispe-che</title>
  <desc
     id="desc4">Created with Sketch.</desc>
  <defs
     id="defs7">
    <path
       d="M50.0004412,4.04252804e-14 C22.3871247,4.04252804e-14 0,22.3848726 0,49.9995588 C0,77.6133626 22.3871247,100 50.0004412,100 C77.6137577,100 100,77.6133626 100,49.9995588 C100,22.3848726 77.6128753,3.55271368e-14 50.0004412,4.04252804e-14 Z"
       id="path-1" />
  </defs>
  <g
     inkscape:groupmode="layer"
     id="layer1"
     inkscape:label="BACKGROUND">
    <g
       style="fill:#ffffff;fill-opacity:1;fill-rule:evenodd;stroke:none;stroke-width:1;stroke-opacity:1"
       id="Page-1">
      <g
         id="eclispe-che"
         style="fill:#ffffff;fill-opacity:1;stroke:none;stroke-opacity:1">
        <g
           id="path3023-path"
           style="fill:#ffffff;fill-opacity:1;stroke:none;stroke-opacity:1">
          <use
             xlink:href="#path-1"
             id="use9"
             style="fill:#ffffff;fill-opacity:1;fill-rule:evenodd;stroke:none;stroke-opacity:1"
             x="0"
             y="0"
             width="100%"
             height="100%" />
          <path
             d="M 50.000441,0.5 C 22.662621,0.5 0.5,22.661661 0.5,49.999559 0.5,77.337051 22.663098,99.5 50.000441,99.5 77.337613,99.5 99.5,77.337222 99.5,49.999559 99.5,22.661796 77.337514,0.5 50.000441,0.5 Z"
             id="path11"
             style="fill:#ffffff;fill-opacity:1;stroke:none;stroke-width:1;stroke-opacity:1"
             inkscape:connector-curvature="0" />
        </g>
      </g>
    </g>
    <g
       style="fill-rule:nonzero"
       transform="matrix(0.28937329,0,0,0.28937329,13.309619,7.1609215)"
       id="g82">
      <path
         style="fill:#c9781f"
         inkscape:connector-curvature="0"
         d="m 39.804,116.54 c 0,0 21.156,-18.392 83.77,-18.392 57.44,0 73.584,13.013 89.98,18.392 l -85.536,41.74 z"
         id="path2" />
      <path
         style="fill:#f6d2a2"
         inkscape:connector-curvature="0"
         d="m 30.873,171.897 c 0.388,7.978 8.368,4.287 11.983,1.793 3.43,-2.368 4.435,-0.4 4.736,-5.073 0.197,-3.07 0.552,-6.143 0.377,-9.227 -5.19,-0.47 -10.833,0.764 -15.087,3.85 -2.19,1.6 -6.3,6.665 -2,8.657"
         id="path4" />
      <path
         style="fill:#c6b198"
         inkscape:connector-curvature="0"
         d="m 30.873,171.897 c 1.162,-0.43 2.393,-0.738 3.18,-1.787"
         id="path6" />
      <path
         style="fill:#37abc8"
         inkscape:connector-curvature="0"
         d="M 49.317,76.853 C 18.734,68.253 41.475,29.41 66.034,45.391 Z m 135.88,-34.378 c 24.208,-16.98 46.083,21.33 17.95,30.97 z"
         id="path8" />
      <path
         style="fill:#f6d2a2"
         inkscape:connector-curvature="0"
         d="m 190.405,270.087 c 6.15,3.8 17.388,15.288 8.164,20.86 -8.863,8.104 -13.823,-8.895 -21.602,-11.25 3.35,-4.543 7.596,-8.686 13.438,-9.608 z M 80.552,283.07 c -7.217,1.115 -11.28,7.618 -17.296,10.92 -5.67,3.376 -7.838,-1.08 -8.35,-1.986 -0.9,-0.405 -0.814,0.377 -2.186,-1.002 -5.256,-8.284 5.476,-14.34 11.065,-18.454 7.784,-1.572 12.662,5.167 16.766,10.522 z"
         id="path10" />
      <path
         style="fill:#077e91"
         inkscape:connector-curvature="0"
         d="M 50.594,66.12 C 46.56,64 43.6,61.095 46.067,56.434 c 2.285,-4.314 6.53,-3.846 10.565,-1.715 z m 146.18,-4.05 c 4.035,-2.13 6.995,-5.026 4.527,-9.687 -2.285,-4.315 -6.53,-3.846 -10.565,-1.715 z"
         id="path12" />
      <path
         style="fill:#f6d2a2"
         inkscape:connector-curvature="0"
         d="m 224.547,170.884 c -0.388,7.978 -8.368,4.287 -11.983,1.793 -3.43,-2.368 -4.435,-0.4 -4.736,-5.073 -0.197,-3.07 -0.552,-6.143 -0.377,-9.227 5.19,-0.47 10.833,0.764 15.087,3.85 2.19,1.6 6.3,6.665 2,8.657"
         id="path14" />
      <path
         style="fill:#c6b198"
         inkscape:connector-curvature="0"
         d="m 224.547,170.884 c -1.162,-0.43 -2.393,-0.738 -3.18,-1.787"
         id="path16" />
      <path
         style="fill:#37abc8"
         inkscape:connector-curvature="0"
         d="m 124.646,26.337 c 30.618,0 59.32,4.373 74.282,33.75 13.43,32.927 8.654,68.434 10.702,103.233 1.76,29.88 5.66,64.402 -8.222,92.093 -14.602,29.133 -51.09,36.46 -81.154,35.387 -23.613,-0.844 -52.138,-8.537 -65.465,-30.082 -15.635,-25.275 -8.233,-62.86 -7.098,-90.983 1.345,-33.315 -9.036,-66.73 1.923,-99.33 11.37,-33.816 42.03,-41.46 75.03,-44.066"
         id="path18" />
      <path
         style="fill:#ffffff"
         inkscape:connector-curvature="0"
         d="m 130.05,67.384 c 5.497,31.913 57.732,23.475 50.23,-8.7 -6.727,-28.862 -52.056,-20.873 -50.23,8.7 m -62.42,5.16 c 7.125,27.783 51.666,20.67 49.988,-7.2 -2,-33.378 -56.8,-26.937 -49.988,7.2 m 72.56,32.04 c 0.024,4.265 1,8.433 0.158,13.22 -1.06,2.002 -3.14,2.214 -4.935,3.022 a 7.26,7.26 0 0 1 -5.561,-4.332 c -0.637,-5.038 0.237,-9.916 0.398,-14.956 z"
         id="path20" />
      <ellipse
         style="fill:#000000"
         cx="79.916"
         cy="68.014999"
         rx="7.5209999"
         ry="8.1359997"
         id="ellipse22" />
      <ellipse
         style="fill:#ffffff"
         cx="83.336998"
         cy="69.849998"
         rx="1.773"
         ry="2.0680001"
         id="ellipse24" />
      <ellipse
         style="fill:#000000"
         cx="142.935"
         cy="65.987999"
         rx="7.3959999"
         ry="8.1359997"
         id="ellipse26" />
      <ellipse
         style="fill:#ffffff"
         cx="146.3"
         cy="67.823997"
         rx="1.744"
         ry="2.0680001"
         id="ellipse28" />
      <path
         style="fill:#ffffff"
         inkscape:connector-curvature="0"
         d="m 118.697,105.226 c -3.282,7.943 1.83,23.825 10.734,12.1 -0.637,-5.038 0.237,-9.916 0.398,-14.956 z"
         id="path30" />
      <path
         style="fill:#f6d2a2"
         inkscape:connector-curvature="0"
         d="m 118.175,89.93 c -6.116,0.52 -11.116,7.783 -7.936,13.53 4.212,7.6 13.612,-0.673 19.466,0.103 6.738,0.138 12.26,7.115 17.67,1.26 6.02,-6.51 -2.592,-12.852 -9.32,-15.687 z"
         id="path32" />
      <path
         style="fill:#ef9325"
         inkscape:connector-curvature="0"
         d="m 39.804,116.54 c 0,0 1.936,20.948 1.804,29.978 -0.132,9.03 8.53,3.328 8.98,17.53 0.45,14.202 -5.248,11.507 -8.25,18.458 -3.002,6.951 -5.042,39.5 -5.042,39.5 0,0 3.08,6.082 12.7,11.558 9.62,5.476 25.1,8.552 38.485,7.946 13.385,-0.606 22.963,-3.472 25.356,-5.057 2.393,-1.585 6.362,-6.597 7.856,-10.474 1.494,-3.877 4.613,-35.808 4.396,-54.08 -0.217,-18.272 -3.24,-35.13 -3.24,-35.13 z"
         id="path34" />
      <path
         style="fill:#e5e5e5"
         inkscape:connector-curvature="0"
         d="m 124.655,205.505 c -39.447,4.398 -85.218,-7.76 -85.218,-7.76 0,0 0.672,-12.33 3.633,-16.67 41.027,12.694 82.417,8.67 82.417,8.67 0.614,5.756 0.18,10.332 -0.83,15.76 z m -4.955,24.302 c -39.447,4.398 -82.394,-8.248 -82.394,-8.248 0,0 -0.138,-11.843 1.43,-17.044 41.027,12.694 84.847,9.53 84.847,9.53 -0.37,6.25 -1.25,12.4 -3.883,15.76 z"
         id="path36" />
      <path
         style="fill:#ef9325"
         inkscape:connector-curvature="0"
         d="m 213.553,116.54 -0.133,29.978 c 0.134,9.03 -5.25,3.328 -5.707,17.53 -0.457,14.202 5.314,11.507 8.353,18.458 3.039,6.951 5.105,39.5 5.105,39.5 0,0 -3.12,6.082 -12.86,11.558 -9.74,5.476 -25.406,8.552 -38.97,7.946 -13.564,-0.606 -23.25,-3.472 -25.674,-5.057 -2.424,-1.585 -6.442,-6.597 -7.954,-10.474 -1.512,-3.877 -4.672,-35.808 -4.45,-54.08 0.222,-18.272 3.28,-35.13 3.28,-35.13 z"
         id="path38" />
      <path
         style="fill:#e5e5e5"
         inkscape:connector-curvature="0"
         d="m 132.715,205.505 c 39.943,4.398 86.3,-7.76 86.3,-7.76 0,0 -0.68,-12.33 -3.678,-16.67 -41.542,12.694 -83.452,8.67 -83.452,8.67 -0.622,5.756 -0.184,10.332 0.842,15.76 z m 5.027,24.302 c 39.943,4.398 83.43,-8.248 83.43,-8.248 0,0 0.14,-11.843 -1.447,-17.044 -41.542,12.694 -85.913,9.53 -85.913,9.53 0.374,6.25 1.265,12.4 3.932,15.76 z"
         id="path40" />
      <path
         style="fill:#d2e261"
         inkscape:connector-curvature="0"
         d="m 229.487,154.96 c -1.24,2.34 -3.698,3.468 -5.487,2.52 l -1.434,-0.758 c -1.79,-0.947 -2.235,-3.61 -0.993,-5.95 l 27.952,-52.688 c 1.24,-2.34 3.698,-3.468 5.487,-2.52 l 1.434,0.758 c 1.79,0.947 2.235,3.61 0.993,5.95 z"
         id="path42" />
      <path
         style="fill:#000000"
         inkscape:connector-curvature="0"
         d="m 216.286,179.843 c -0.723,1.363 -2.76,1.7 -4.55,0.753 l -1.434,-0.758 c -1.79,-0.947 -2.655,-2.82 -1.93,-4.182 l 13.114,-24.72 c 0.723,-1.363 2.76,-1.7 4.55,-0.753 l 1.434,0.758 c 1.79,0.947 2.655,2.82 1.93,4.182 z"
         id="path44" />
      <path
         style="fill:#9b9b9b"
         inkscape:connector-curvature="0"
         d="m 227.946,150.042 -1.434,-0.758 c -1.79,-0.947 -3.62,-0.998 -4.09,-0.115 l -0.838,1.58 c 0.47,-0.884 2.3,-0.832 4.09,0.115 l 1.434,0.758 c 1.79,0.947 2.86,2.43 2.392,3.314 l 0.838,-1.58 c 0.47,-0.883 -0.603,-2.367 -2.392,-3.314 z"
         id="path46" />
      <ellipse
         style="fill:#f6d2a2"
         transform="rotate(20.414,216.137,164.336)"
         cx="216.13699"
         cy="164.336"
         rx="6.1529999"
         ry="4.7540002"
         id="ellipse48" />
      <path
         style="fill:#d2e261"
         inkscape:connector-curvature="0"
         d="m 26.943,155.81 c 1.132,2.394 3.535,3.634 5.366,2.77 l 1.467,-0.692 c 1.83,-0.864 2.398,-3.505 1.266,-5.898 L 9.538,98.078 C 8.406,95.684 6.003,94.444 4.172,95.308 L 2.706,96 c -1.83,0.864 -2.398,3.505 -1.266,5.898 z"
         id="path50" />
      <path
         style="fill:#000000"
         inkscape:connector-curvature="0"
         d="m 38.988,181.272 c 0.66,1.394 2.68,1.824 4.5,0.96 l 1.467,-0.692 c 1.83,-0.864 2.78,-2.695 2.12,-4.09 L 35.12,152.158 c -0.66,-1.394 -2.68,-1.824 -4.5,-0.96 l -1.467,0.692 c -1.83,0.864 -2.78,2.695 -2.12,4.09 z"
         id="path52" />
      <path
         style="fill:#9b9b9b"
         inkscape:connector-curvature="0"
         d="m 28.708,150.968 1.467,-0.692 c 1.83,-0.864 3.662,-0.832 4.1,0.072 l 0.765,1.617 c -0.428,-0.904 -2.26,-0.936 -4.1,-0.073 l -1.467,0.692 c -1.83,0.864 -2.97,2.297 -2.542,3.2 l -0.765,-1.617 c -0.427,-0.903 0.71,-2.337 2.542,-3.2 z"
         id="path54" />
      <ellipse
         style="fill:#f6d2a2"
         transform="rotate(159.586,41.089,165.024)"
         cx="41.089001"
         cy="165.024"
         rx="6.1529999"
         ry="4.7540002"
         id="ellipse56" />
      <path
         style="fill:#960000"
         inkscape:connector-curvature="0"
         d="m 52.905,88.827 c -1.216,2.208 -4.084,2.964 -6.407,1.688 l -2.672,-1.467 c -2.323,-1.276 -3.22,-4.1 -2.004,-6.308 L 69.626,32.244 c 1.216,-2.208 4.084,-2.964 6.407,-1.688 l 2.672,1.467 c 2.323,1.276 2.922,3.662 2.004,6.308 -9.74,28.064 -27.804,50.496 -27.804,50.496 z"
         id="path58" />
      <path
         style="fill:#595959"
         inkscape:connector-curvature="0"
         d="m 60.26,59.985 c 8.455,-15.356 14,-28.563 12.687,-30.06 l 0.03,-0.056 c -0.036,-0.02 -0.075,-0.033 -0.11,-0.053 L 72.853,29.809 C 59.86,22.779 42.38,29.741 33.745,45.425 25.11,61.109 28.585,79.579 41.491,86.769 l -0.004,0.008 c 0.054,0.02 0.085,0.047 0.12,0.066 l 0.03,-0.056 c 1.975,0.314 10.166,-11.446 18.62,-26.8 z"
         id="path60" />
      <path
         style="fill:#960000"
         inkscape:connector-curvature="0"
         d="m 199.593,88.933 c 1.15,2.242 3.997,3.08 6.356,1.872 l 2.713,-1.4 c 2.36,-1.208 3.337,-4.005 2.186,-6.247 L 184.515,31.882 c -1.15,-2.242 -3.997,-3.08 -6.356,-1.872 l -2.713,1.4 c -2.36,1.208 -3.027,3.577 -2.186,6.247 8.925,28.333 26.333,51.276 26.333,51.276 z"
         id="path62" />
      <path
         style="fill:#595959"
         inkscape:connector-curvature="0"
         d="M 193.074,59.9 C 185.066,44.307 179.894,30.945 181.261,29.486 l -0.03,-0.057 c 0.037,-0.02 0.076,-0.03 0.112,-0.05 l 0.015,-0.006 c 13.2,-6.653 30.462,0.8 38.64,16.737 8.178,15.937 4.17,34.288 -8.937,41.104 l 0.004,0.008 c -0.054,0.02 -0.086,0.044 -0.123,0.063 l -0.03,-0.057 c -1.983,0.256 -9.832,-11.734 -17.84,-27.327 z"
         id="path64" />
      <path
         style="fill:#353535"
         inkscape:connector-curvature="0"
         d="m 219.147,53.314 c 0,0 -9.73,-24.334 -21.012,-37.2 -11.282,-12.866 -121.675,-17.253 -139.803,0 -18.128,17.253 -24.963,37.2 -24.963,37.2 v -5.4 c 0,0 8.385,-23.69 24.963,-37.2 16.578,-13.51 125.518,-12.8 139.572,0 14.054,12.8 21.243,37.2 21.243,37.2 z"
         id="path66" />
      <g
         style="fill:#960000"
         id="g72">
        <ellipse
           transform="rotate(152.85101,205.64877,49.710312)"
           cx="192.49001"
           cy="46.096001"
           rx="3.8099999"
           ry="9.2939997"
           id="ellipse68" />
        <ellipse
           transform="rotate(28.803035,19.859189,97.506716)"
           cx="8.2089996"
           cy="45.460999"
           rx="3.8099999"
           ry="9.2939997"
           id="ellipse70" />
      </g>
      <g
         style="fill:#ffffff"
         id="g78">
        <path
           style="opacity:0.6"
           inkscape:connector-curvature="0"
           d="M 177.55,48.18 H 74.586 c -18.487,0 -18.423,49.06 -1.066,51.887 l 35.89,-2.305 c 4.34,0 13.004,-16.784 14.63,-18.103 1.626,-1.319 6.98,-1.48 9.087,0 2.107,1.48 6.903,16.411 11.243,16.411 l 35.89,3.996 c 16.765,-7.704 12.538,-51.887 -2.7,-51.887 z"
           id="path74" />
        <path
           style="opacity:0.5"
           inkscape:connector-curvature="0"
           d="m 101.924,58.324 c -11.34,-0.253 -29.084,-0.15 -38.777,-0.07 -1.625,5.32 -3.437,12.058 -2.538,18.6 l 41.547,0.043 c 8.194,0 15.083,1.544 21.5,3.217 0.158,-0.2 0.29,-0.35 0.394,-0.434 1.626,-1.32 6.98,-1.48 9.087,0 0.545,0.383 1.274,1.674 2.124,3.367 3.27,0.69 6.548,1.165 9.952,1.207 l 44.992,0.04 c 1.78,-5.944 0.468,-12.316 0.07,-18.304 -13.654,0 -35.354,-0.308 -45.758,-0.308 -14.66,-0.001 -27.458,-7.02 -42.582,-7.357 z"
           id="path76" />
      </g>
      <path
         style="fill:#000000"
         inkscape:connector-curvature="0"
         d="m 117.405,89.612 c -0.453,-10.582 19.75,-11.905 22.136,-3.047 2.38,8.837 -21.14,10.9 -22.136,3.047 -0.794,-6.262 0,0 0,0 z"
         id="path80" />
    </g>
  </g>
  <g
     inkscape:groupmode="layer"
     id="layer2"
     inkscape:label="PLACE LOGO HERE" />
</svg>
